<svg width="32" height="32" viewBox="0 0 32 32" fill="none" xmlns="http://www.w3.org/2000/svg">
<path d="M2 7.00004H2.142C2.36027 7.85763 2.85806 8.61804 3.55672 9.16115C4.25537 9.70426 5.11507 9.99911 6 9.99911C6.88493 9.99911 7.74463 9.70426 8.44328 9.16115C9.14194 8.61804 9.63973 7.85763 9.858 7.00004H30C30.2652 7.00004 30.5196 6.89468 30.7071 6.70715C30.8946 6.51961 31 6.26526 31 6.00004C31 5.73482 30.8946 5.48047 30.7071 5.29293C30.5196 5.1054 30.2652 5.00004 30 5.00004H9.858C9.63973 4.14246 9.14194 3.38204 8.44328 2.83893C7.74463 2.29582 6.88493 2.00098 6 2.00098C5.11507 2.00098 4.25537 2.29582 3.55672 2.83893C2.85806 3.38204 2.36027 4.14246 2.142 5.00004H2C1.73478 5.00004 1.48043 5.1054 1.29289 5.29293C1.10536 5.48047 1 5.73482 1 6.00004C1 6.26526 1.10536 6.51961 1.29289 6.70715C1.48043 6.89468 1.73478 7.00004 2 7.00004V7.00004ZM6 4.00004C6.39556 4.00004 6.78224 4.11734 7.11114 4.3371C7.44004 4.55686 7.69638 4.86922 7.84776 5.23467C7.99913 5.60013 8.03874 6.00226 7.96157 6.39022C7.8844 6.77818 7.69392 7.13455 7.41421 7.41426C7.13451 7.69396 6.77814 7.88444 6.39018 7.96161C6.00222 8.03878 5.60009 7.99918 5.23463 7.8478C4.86918 7.69642 4.55682 7.44008 4.33706 7.11118C4.1173 6.78228 4 6.3956 4 6.00004C4 5.46961 4.21071 4.9609 4.58579 4.58583C4.96086 4.21075 5.46957 4.00004 6 4.00004V4.00004ZM30 15H29.858C29.6397 14.1425 29.1419 13.382 28.4433 12.8389C27.7446 12.2958 26.8849 12.001 26 12.001C25.1151 12.001 24.2554 12.2958 23.5567 12.8389C22.8581 13.382 22.3603 14.1425 22.142 15H2C1.73478 15 1.48043 15.1054 1.29289 15.2929C1.10536 15.4805 1 15.7348 1 16C1 16.2653 1.10536 16.5196 1.29289 16.7071C1.48043 16.8947 1.73478 17 2 17H22.142C22.3603 17.8576 22.8581 18.618 23.5567 19.1611C24.2554 19.7043 25.1151 19.9991 26 19.9991C26.8849 19.9991 27.7446 19.7043 28.4433 19.1611C29.1419 18.618 29.6397 17.8576 29.858 17H30C30.2652 17 30.5196 16.8947 30.7071 16.7071C30.8946 16.5196 31 16.2653 31 16C31 15.7348 30.8946 15.4805 30.7071 15.2929C30.5196 15.1054 30.2652 15 30 15ZM26 18C25.6044 18 25.2178 17.8827 24.8889 17.663C24.56 17.4432 24.3036 17.1309 24.1522 16.7654C24.0009 16.4 23.9613 15.9978 24.0384 15.6099C24.1156 15.2219 24.3061 14.8655 24.5858 14.5858C24.8655 14.3061 25.2219 14.1156 25.6098 14.0385C25.9978 13.9613 26.3999 14.0009 26.7654 14.1523C27.1308 14.3037 27.4432 14.56 27.6629 14.8889C27.8827 15.2178 28 15.6045 28 16C28 16.5305 27.7893 17.0392 27.4142 17.4143C27.0391 17.7893 26.5304 18 26 18ZM30 25H19.858C19.6397 24.1425 19.1419 23.382 18.4433 22.8389C17.7446 22.2958 16.8849 22.001 16 22.001C15.1151 22.001 14.2554 22.2958 13.5567 22.8389C12.8581 23.382 12.3603 24.1425 12.142 25H2C1.73478 25 1.48043 25.1054 1.29289 25.2929C1.10536 25.4805 1 25.7348 1 26C1 26.2653 1.10536 26.5196 1.29289 26.7071C1.48043 26.8947 1.73478 27 2 27H12.142C12.3603 27.8576 12.8581 28.618 13.5567 29.1611C14.2554 29.7043 15.1151 29.9991 16 29.9991C16.8849 29.9991 17.7446 29.7043 18.4433 29.1611C19.1419 28.618 19.6397 27.8576 19.858 27H30C30.2652 27 30.5196 26.8947 30.7071 26.7071C30.8946 26.5196 31 26.2653 31 26C31 25.7348 30.8946 25.4805 30.7071 25.2929C30.5196 25.1054 30.2652 25 30 25ZM16 28C15.6044 28 15.2178 27.8827 14.8889 27.663C14.56 27.4432 14.3036 27.1309 14.1522 26.7654C14.0009 26.4 13.9613 25.9978 14.0384 25.6099C14.1156 25.2219 14.3061 24.8655 14.5858 24.5858C14.8655 24.3061 15.2219 24.1156 15.6098 24.0385C15.9978 23.9613 16.3999 24.0009 16.7654 24.1523C17.1308 24.3037 17.4432 24.56 17.6629 24.8889C17.8827 25.2178 18 25.6045 18 26C18 26.5305 17.7893 27.0392 17.4142 27.4143C17.0391 27.7893 16.5304 28 16 28V28Z" fill="white"/>
</svg>
