<svg width="37" height="35" viewBox="0 0 37 35" fill="none" xmlns="http://www.w3.org/2000/svg">
<path d="M36.724 16.4665L33.3535 13.2783L19.9237 0.560685C19.7358 0.382927 19.5127 0.241921 19.2672 0.145718C19.0217 0.0495152 18.7586 0 18.4928 0C18.2271 0 17.9639 0.0495152 17.7184 0.145718C17.4729 0.241921 17.2499 0.382927 17.062 0.560685L3.61188 13.2701L0.232744 16.4665C0.0795637 16.622 -0.00382877 16.8277 0.000135104 17.0402C0.00409898 17.2528 0.0951097 17.4555 0.253993 17.6058C0.412877 17.7561 0.627229 17.8422 0.85189 17.846C1.07655 17.8497 1.29398 17.7708 1.45837 17.6259L3.35751 15.8294V33.0861C3.35751 33.5937 3.57069 34.0806 3.95016 34.4395C4.32963 34.7985 4.8443 35.0001 5.38095 35.0001H13.2752C13.8119 35.0001 14.3266 34.7985 14.706 34.4395C15.0855 34.0806 15.2987 33.5937 15.2987 33.0861V22.1486C15.2987 22.0761 15.3291 22.0065 15.3833 21.9552C15.4376 21.9039 15.5111 21.8751 15.5877 21.8751H21.369C21.4457 21.8751 21.5192 21.9039 21.5734 21.9552C21.6276 22.0065 21.6581 22.0761 21.6581 22.1486V33.0861C21.6581 33.5937 21.8712 34.0806 22.2507 34.4395C22.6302 34.7985 23.1448 35.0001 23.6815 35.0001H31.5845C31.8502 35.0001 32.1133 34.9506 32.3588 34.8544C32.6043 34.7582 32.8274 34.6173 33.0153 34.4395C33.2031 34.2618 33.3522 34.0508 33.4539 33.8186C33.5556 33.5863 33.6079 33.3374 33.6079 33.0861V15.8376L35.4984 17.6259C35.6628 17.7708 35.8802 17.8497 36.1048 17.846C36.3295 17.8422 36.5439 17.7561 36.7027 17.6058C36.8616 17.4555 36.9526 17.2528 36.9566 17.0402C36.9606 16.8277 36.8772 16.622 36.724 16.4665ZM31.8735 33.0861C31.8735 33.1586 31.8431 33.2281 31.7889 33.2794C31.7347 33.3307 31.6611 33.3595 31.5845 33.3595H23.6815C23.6048 33.3595 23.5313 33.3307 23.4771 33.2794C23.4229 33.2281 23.3924 33.1586 23.3924 33.0861V22.1486C23.3924 21.6409 23.1792 21.1541 22.7998 20.7951C22.4203 20.4362 21.9056 20.2345 21.369 20.2345H15.5877C15.0511 20.2345 14.5364 20.4362 14.157 20.7951C13.7775 21.1541 13.5643 21.6409 13.5643 22.1486V33.0861C13.5643 33.1586 13.5339 33.2281 13.4796 33.2794C13.4254 33.3307 13.3519 33.3595 13.2752 33.3595H5.38095C5.30428 33.3595 5.23076 33.3307 5.17655 33.2794C5.12234 33.2281 5.09188 33.1586 5.09188 33.0861V14.1915L18.2731 1.72006C18.3273 1.66913 18.4006 1.64055 18.4769 1.64055C18.5533 1.64055 18.6266 1.66913 18.6807 1.72006L31.8706 14.197L31.8735 33.0861Z" fill="white"/>
</svg>
