<svg xmlns="http://www.w3.org/2000/svg" data-name="Camada 1" viewBox="0 0 100 100"><path d="M0,32.5015H100v6H95.81152l-5.04785,44.313A15.02066,15.02066,0,0,1,75.91406,95.835H24.08594A15.01932,15.01932,0,0,1,9.2373,82.81448L4.18945,38.5015H0ZM15.18555,82.0303A9.0027,9.0027,0,0,0,24.08594,89.835H75.91406a9.002,9.002,0,0,0,8.90039-7.80469L89.759,38.5015H10.241Z"/><polygon points="75.87 10.165 24.13 10.165 20.2 28.505 14.06 28.505 19.28 4.165 80.72 4.165 85.94 28.505 79.8 28.505 75.87 10.165"/><polygon points="46.731 75.539 34.77 63.577 39.012 59.335 46.731 67.054 60.988 52.798 65.23 57.04 46.731 75.539"/></svg>