<svg width="32" height="33" viewBox="0 0 32 33" fill="none" xmlns="http://www.w3.org/2000/svg">
<path d="M14.1522 1.45281C14.414 1.45281 14.6303 1.67203 14.6303 1.94156V14.5484C14.6303 14.818 14.414 15.0372 14.1522 15.0372H1.91427C1.65255 15.0372 1.4362 14.818 1.4362 14.5484V1.94156C1.4362 1.67203 1.65255 1.45281 1.91427 1.45281H14.1522ZM14.1522 1H1.91427C1.40828 1 1 1.42406 1 1.94156V14.5484C1 15.0659 1.40828 15.49 1.91427 15.49H14.1522C14.6582 15.49 15.07 15.0659 15.07 14.5484V1.94156C15.07 1.42406 14.6582 1 14.1522 1Z" fill="white" stroke="white"/>
<path d="M29.6983 1.45281C29.9601 1.45281 30.1729 1.67203 30.1729 1.94156V14.5484C30.1729 14.818 29.9601 15.0372 29.6983 15.0372H17.4569C17.1952 15.0372 16.9823 14.818 16.9823 14.5484V1.94156C16.9823 1.67203 17.1952 1.45281 17.4569 1.45281H29.6983ZM29.6983 1H17.4569C16.9544 1 16.5426 1.42406 16.5426 1.94156V14.5484C16.5426 15.0659 16.9544 15.49 17.4569 15.49H29.6983C30.2008 15.49 30.6126 15.0659 30.6126 14.5484V1.94156C30.6126 1.42406 30.2008 1 29.6983 1Z" fill="white" stroke="white"/>
<path d="M14.1522 17.8726C14.414 17.8726 14.6303 18.0954 14.6303 18.3649V30.9682C14.6303 31.2377 14.414 31.4605 14.1522 31.4605H1.91427C1.65255 31.4605 1.4362 31.2377 1.4362 30.9682V18.3649C1.4362 18.0954 1.65255 17.8726 1.91427 17.8726H14.1522ZM14.1522 17.4233H1.91427C1.40828 17.4233 1 17.8438 1 18.3649V30.9682C1 31.4893 1.40828 31.9133 1.91427 31.9133H14.1522C14.6582 31.9133 15.07 31.4893 15.07 30.9682V18.3649C15.07 17.8438 14.6582 17.4233 14.1522 17.4233Z" fill="white" stroke="white"/>
<path d="M29.6983 17.8726C29.9601 17.8726 30.1729 18.0954 30.1729 18.3649V30.9682C30.1729 31.2377 29.9601 31.4605 29.6983 31.4605H17.4569C17.1952 31.4605 16.9823 31.2377 16.9823 30.9682V18.3649C16.9823 18.0954 17.1952 17.8726 17.4569 17.8726H29.6983ZM29.6983 17.4233H17.4569C16.9544 17.4233 16.5426 17.8438 16.5426 18.3649V30.9682C16.5426 31.4893 16.9544 31.9133 17.4569 31.9133H29.6983C30.2008 31.9133 30.6126 31.4893 30.6126 30.9682V18.3649C30.6126 17.8438 30.2008 17.4233 29.6983 17.4233Z" fill="white" stroke="white"/>
</svg>
