<svg width="35" height="35" viewBox="0 0 35 35" fill="none" xmlns="http://www.w3.org/2000/svg">
<path d="M17.5 0C14.0388 0 10.6554 1.02636 7.77753 2.94928C4.89967 4.87221 2.65665 7.60533 1.33212 10.803C0.0075825 14.0007 -0.338976 17.5194 0.336265 20.9141C1.01151 24.3087 2.67822 27.4269 5.12564 29.8744C7.57306 32.3218 10.6913 33.9885 14.0859 34.6637C17.4806 35.339 20.9993 34.9924 24.197 33.6679C27.3947 32.3434 30.1278 30.1003 32.0507 27.2225C33.9736 24.3446 35 20.9612 35 17.5C35 12.8587 33.1563 8.40752 29.8744 5.12563C26.5925 1.84374 22.1413 0 17.5 0V0ZM17.5 33.5417C14.3273 33.5417 11.2258 32.6008 8.58773 30.8382C5.9497 29.0755 3.8936 26.5701 2.67944 23.6389C1.46528 20.7077 1.14761 17.4822 1.76658 14.3704C2.38555 11.2586 3.91337 8.4003 6.15684 6.15683C8.4003 3.91336 11.2587 2.38554 14.3704 1.76657C17.4822 1.1476 20.7077 1.46528 23.6389 2.67943C26.5701 3.89359 29.0755 5.94969 30.8382 8.58773C32.6008 11.2258 33.5417 14.3273 33.5417 17.5C33.5417 21.7545 31.8516 25.8348 28.8432 28.8432C25.8348 31.8516 21.7545 33.5417 17.5 33.5417Z" fill="white"/>
<path d="M17.4999 17.7991C14.9859 17.7991 12.5748 18.7978 10.7971 20.5755C9.01945 22.3531 8.02075 24.7642 8.02075 27.2782C8.02075 27.4716 8.09757 27.6571 8.23432 27.7938C8.37107 27.9306 8.55653 28.0074 8.74992 28.0074C8.94331 28.0074 9.12877 27.9306 9.26552 27.7938C9.40226 27.6571 9.47908 27.4716 9.47908 27.2782C9.47908 25.151 10.3241 23.1109 11.8283 21.6067C13.3325 20.1025 15.3727 19.2574 17.4999 19.2574C19.6272 19.2574 21.6673 20.1025 23.1715 21.6067C24.6757 23.1109 25.5207 25.151 25.5207 27.2782C25.5207 27.4716 25.5976 27.6571 25.7343 27.7938C25.8711 27.9306 26.0565 28.0074 26.2499 28.0074C26.4433 28.0074 26.6288 27.9306 26.7655 27.7938C26.9023 27.6571 26.9791 27.4716 26.9791 27.2782C26.9791 26.0334 26.7339 24.8008 26.2575 23.6507C25.7811 22.5007 25.0829 21.4557 24.2027 20.5755C23.3225 19.6952 22.2775 18.997 21.1274 18.5206C19.9774 18.0443 18.7447 17.7991 17.4999 17.7991V17.7991Z" fill="white"/>
<path d="M17.5002 16.5595C18.1712 16.5416 18.8321 16.3915 19.445 16.1178C20.0579 15.8441 20.6108 15.4522 21.072 14.9646C21.5333 14.4769 21.8938 13.9031 22.133 13.2759C22.3721 12.6487 22.4852 11.9805 22.4658 11.3095C22.4862 10.638 22.3738 9.969 22.1351 9.34098C21.8964 8.71295 21.536 8.13824 21.0747 7.6498C20.6133 7.16137 20.0601 6.76882 19.4467 6.49467C18.8333 6.22052 18.1718 6.07017 17.5002 6.05225C16.8286 6.07017 16.1671 6.22052 15.5537 6.49467C14.9403 6.76882 14.3871 7.16137 13.9257 7.6498C13.4644 8.13824 13.104 8.71295 12.8653 9.34098C12.6266 9.969 12.5142 10.638 12.5346 11.3095C12.5152 11.9805 12.6283 12.6487 12.8674 13.2759C13.1066 13.9031 13.4671 14.4769 13.9284 14.9646C14.3896 15.4522 14.9425 15.8441 15.5554 16.1178C16.1683 16.3915 16.8292 16.5416 17.5002 16.5595V16.5595ZM17.5002 7.51058C17.9804 7.5284 18.4523 7.64096 18.8888 7.84179C19.3253 8.04262 19.7178 8.32775 20.0438 8.68079C20.3697 9.03384 20.6226 9.44783 20.788 9.89897C20.9534 10.3501 21.028 10.8295 21.0075 11.3095C21.027 11.789 20.9517 12.2676 20.7859 12.7179C20.62 13.1682 20.3669 13.5813 20.0411 13.9336C19.7152 14.2858 19.3231 14.5703 18.887 14.7707C18.451 14.971 17.9797 15.0834 17.5002 15.1012C17.0207 15.0834 16.5494 14.971 16.1134 14.7707C15.6773 14.5703 15.2852 14.2858 14.9593 13.9336C14.6335 13.5813 14.3804 13.1682 14.2145 12.7179C14.0487 12.2676 13.9734 11.789 13.9929 11.3095C13.9724 10.8295 14.047 10.3501 14.2124 9.89897C14.3778 9.44783 14.6307 9.03384 14.9566 8.68079C15.2826 8.32775 15.6751 8.04262 16.1116 7.84179C16.5481 7.64096 17.02 7.5284 17.5002 7.51058V7.51058Z" fill="white"/>
</svg>
