<svg width="10" height="8" viewBox="0 0 10 8" fill="none" xmlns="http://www.w3.org/2000/svg">
<path fill-rule="evenodd" clip-rule="evenodd" d="M4.60069 7.35928C7.09747 7.36378 9.11049 6.10322 9.09404 4.54553C9.08068 3.28131 7.73961 2.21221 5.8994 1.84772L5.88015 0.0247455L4.09473 2.27906L5.92783 4.53982L5.91156 2.99906C7.33969 3.31768 8.18446 4.07546 8.18941 4.5439C8.19573 5.14214 6.83225 6.23456 4.58877 6.23052C2.34529 6.22647 0.958688 5.12909 0.952369 4.53085C0.948018 4.11886 1.60149 3.46536 2.74655 3.10623L2.73433 1.94922C1.14224 2.38095 0.0355552 3.37225 0.0477749 4.52922C0.0642269 6.08691 2.10392 7.35478 4.60069 7.35928Z" fill="#225754"/>
</svg>
