<svg xmlns="http://www.w3.org/2000/svg" width="60" height="60" viewBox="0 0 60 60"><path style="line-height:normal;text-indent:0;text-align:start;text-decoration-line:none;text-decoration-style:solid;text-decoration-color:#000;text-transform:none;block-progression:tb;isolation:auto;mix-blend-mode:normal" d="M 30,5 C 16.20473,5 5,16.20473 5,30 5,43.79527 16.20473,55 30,55 43.79527,55 55,43.79527 55,30 55,16.20473 43.79527,5 30,5 Z m 0,2 C 42.71439,7 53,17.28561 53,30 53,42.71439 42.71439,53 30,53 17.28561,53 7,42.71439 7,30 7,17.28561 17.28561,7 30,7 Z m 0,3 c -11.03385,0 -20,8.96615 -20,20 0,4.47859 1.47574,8.62426 3.9668,11.95898 a 1.0005843,1.0005843 0 1 0 1.60351,-1.19726 C 13.32747,37.75928 12,34.03987 12,30 c 0,-9.95297 8.04703,-18 18,-18 9.95297,0 18,8.04703 18,18 0,9.95297 -8.04703,18 -18,18 -2.90317,0 -5.63881,-0.68455 -8.06445,-1.90234 a 1.0001196,1.0001196 0 1 0 -0.89844,1.78711 C 23.73331,49.23839 26.78155,50 30,50 41.03385,50 50,41.03385 50,30 50,18.96615 41.03385,10 30,10 Z m -0.0156,8.00977 A 1.0001,1.0001 0 0 0 29,19.02344 l 0,1.82812 c -0.12901,0.0229 -0.25818,0.0326 -0.38672,0.0645 a 1.0000999,1.0000999 0 0 0 -0.002,0 c -2.34794,0.58291 -4.05077,2.59832 -4.05078,4.94336 10e-6,2.33692 1.69345,4.34308 4.02929,4.93359 1.39014,0.42125 2.22115,0.24654 3.18946,0.64062 1.33427,0.73365 1.93635,2.11188 1.55273,3.4375 -0.38734,1.33832 -1.73256,2.32618 -3.32812,2.32618 -1.59557,0 -2.94273,-0.98786 -3.33008,-2.32618 a 1.0004338,1.0004338 0 1 0 -1.92188,0.55664 c 0.56125,1.93903 2.24731,3.32071 4.24805,3.67383 l 0,1.875 a 1.0001,1.0001 0 1 0 2,0 l 0,-1.87304 c 2.00384,-0.35084 3.69196,-1.73418 4.25391,-3.67579 0.65324,-2.25735 -0.43841,-4.65375 -2.5586,-5.78711 a 1.0000999,1.0000999 0 0 0 -0.0801,-0.0371 c -1.50119,-0.63822 -2.5095,-0.43015 -3.46679,-0.72657 a 1.0000999,1.0000999 0 0 0 -0.0547,-0.0156 c -1.53561,-0.38124 -2.53319,-1.62452 -2.5332,-3.00195 10e-6,-1.37791 0.99753,-2.62071 2.5332,-3.00196 1.5356,-0.38081 3.14672,0.25625 3.90625,1.47461 a 1.0001673,1.0001673 0 1 0 1.69727,-1.05859 c -0.8254,-1.32407 -2.19033,-2.1809 -3.69727,-2.44336 l 0,-1.80664 A 1.0001,1.0001 0 0 0 29.9843,18.00983 Z m 14.89453,15.38671 a 0.50005,0.50005 0 0 0 -0.45508,0.38086 c -0.7302,2.78803 -2.25554,5.31184 -4.39453,7.25586 a 0.50005,0.50005 0 1 0 0.67187,0.74024 c 2.28269,-2.07462 3.91217,-4.76692 4.69141,-7.74219 a 0.50005,0.50005 0 0 0 -0.46289,-0.63477 0.50005,0.50005 0 0 0 -0.0508,0 z m -6.52149,9.04493 a 0.50005,0.50005 0 0 0 -0.26758,0.084 c -0.20732,0.13384 -0.41961,0.2625 -0.63476,0.38672 a 0.50050437,0.50050437 0 0 0 0.5,0.86719 c 0.22952,-0.13252 0.45458,-0.27127 0.67578,-0.41407 a 0.50005,0.50005 0 0 0 -0.27344,-0.92382 z m -20.83398,0.85937 a 1.0001,1.0001 0 0 0 -0.67969,1.76172 c 0.25692,0.22458 0.51884,0.4429 0.78711,0.6543 a 1.0001,1.0001 0 1 0 1.23828,-1.57032 c -0.24157,-0.19036 -0.47762,-0.3876 -0.70898,-0.58984 a 1.0001,1.0001 0 0 0 -0.63672,-0.25586 z" color="#000" font-family="sans-serif" font-weight="400" overflow="visible"/></svg>