<svg xmlns="http://www.w3.org/2000/svg" width="24" height="24" viewBox="0 0 6.35 6.35"><path d="M 6 1 A 1.0001 1.0001 0 0 0 5 2 L 5 22 A 1.0001 1.0001 0 0 0 6 23 L 10 23 A 1.0001 1.0001 0 0 0 11 22 C 11 21.435868 11.435871 21 12 21 C 12.564129 21 13 21.435868 13 22 A 1.0001 1.0001 0 0 0 14 23 L 18 23 A 1.0001 1.0001 0 0 0 19 22 L 19 2 A 1.0001 1.0001 0 0 0 18 1 L 14 1 A 1.0001 1.0001 0 0 0 13 2 C 13 2.5641323 12.564129 3 12 3 C 11.435871 3 11 2.5641323 11 2 A 1.0001 1.0001 0 0 0 10 1 L 6 1 z M 7 3 L 9.4160156 3 C 9.8594101 4.1066835 10.743347 5 12 5 C 13.256653 5 14.14059 4.1066835 14.583984 3 L 17 3 L 17 7 L 14.003906 7 C 12.670238 7 12.670238 9 14.003906 9 L 17 9 L 17 21 L 14.583984 21 C 14.14059 19.893317 13.256653 19 12 19 C 10.743347 19 9.8594101 19.893317 9.4160156 21 L 7 21 L 7 9 L 10.001953 9 C 11.335623 9 11.335623 7 10.001953 7 L 7 7 L 7 3 z " color="#000" font-family="sans-serif" font-weight="400" overflow="visible" transform="scale(.26458)" style="line-height:normal;font-variant-ligatures:normal;font-variant-position:normal;font-variant-caps:normal;font-variant-numeric:normal;font-variant-alternates:normal;font-feature-settings:normal;text-indent:0;text-align:start;text-decoration-line:none;text-decoration-style:solid;text-decoration-color:#000;text-transform:none;text-orientation:mixed;shape-padding:0;isolation:auto;mix-blend-mode:normal"/></svg>