<svg width="18" height="17" viewBox="0 0 18 17" fill="none" xmlns="http://www.w3.org/2000/svg">
<path d="M9.70597 3.74866C9.32663 3.53642 8.70597 3.5438 8.3275 3.76559L2.63306 7.1076C2.25502 7.32983 1.94946 7.86889 1.94946 8.30422V15.503C1.94946 15.9392 2.3071 16.2986 2.7433 16.2986H6.11005C6.55276 16.2986 6.91083 15.9392 6.91083 15.503V12.2022C6.91083 11.7665 7.26891 11.4097 7.70293 11.4097H10.6682C11.1066 11.4097 11.4634 11.7665 11.4634 12.2022V15.503C11.4634 15.9392 11.824 16.2986 12.2641 16.2986H15.6309C16.064 16.2986 16.4256 15.9392 16.4256 15.503V8.30422C16.4256 7.86889 16.1118 7.33286 15.729 7.12106L9.70597 3.74866Z" fill="white"/>
<path d="M17.7041 6.2279C17.5557 6.48962 17.1208 6.52955 16.7362 6.30994L9.65332 2.20273C9.27268 1.98355 8.65592 1.98962 8.27789 2.21358L1.50228 6.29344C1.12598 6.51914 0.688477 6.48962 0.533529 6.2279C0.373807 5.96705 0.551758 5.56428 0.926758 5.34162L8.26834 0.921046C8.64724 0.696654 9.26139 0.687105 9.6416 0.908025L17.2974 5.34466C17.6746 5.56428 17.8634 5.96141 17.7041 6.2279Z" fill="white"/>
</svg>
