<svg width="56" height="54" viewBox="0 0 56 54" fill="none" xmlns="http://www.w3.org/2000/svg">
<path d="M27.0725 23.7797C29.9834 23.7797 32.3663 21.5156 32.3663 18.7481C32.3663 15.9806 29.9834 13.7166 27.0725 13.7166C24.1588 13.7166 21.7759 15.9806 21.7759 18.7481C21.7759 21.5156 24.1588 23.7797 27.0725 23.7797ZM27.0725 15.1537C29.1521 15.1537 30.8525 16.7709 30.8525 18.7481C30.8525 20.7253 29.1521 22.3425 27.0725 22.3425C24.99 22.3425 23.2896 20.7253 23.2896 18.7481C23.2896 16.7709 24.99 15.1537 27.0725 15.1537Z" fill="white"/>
<path d="M33.2004 31.7982L36.3009 27.9872C39.97 23.4563 39.4013 16.8779 34.9388 13.0332C30.4763 9.1491 23.7038 9.1491 19.2413 13.0332C14.7788 16.8779 14.21 23.4563 17.8792 27.9872L20.9796 31.7982C17.4621 32.805 15.3446 34.636 15.3446 36.7229C15.3446 39.9572 20.4896 42.4744 27.0725 42.4744C33.6525 42.4744 38.7975 39.9572 38.7975 36.7229C38.7975 34.636 36.68 32.805 33.2004 31.7982ZM19.0517 27.0872C15.8375 23.1329 16.3654 17.4544 20.2242 14.0738C22.155 12.3863 24.6138 11.5594 27.0346 11.5594C29.4554 11.5594 31.9142 12.4229 33.8421 14.0738C37.7009 17.4179 38.2288 23.1329 35.0146 27.0872L31.2317 31.7616L27.6384 36.1829C27.4867 36.3629 27.2592 36.4697 27.0346 36.4697C26.8071 36.4697 26.5796 36.3629 26.4279 36.1829L22.7967 31.725L19.0517 27.0872ZM27.0725 41.0372C20.9446 41.0372 16.8584 38.8069 16.8584 36.7229C16.8584 35.2491 18.9 33.8091 21.9654 33.0188L25.2554 37.0829C25.7104 37.62 26.3521 37.9097 27.0725 37.9097C27.79 37.9097 28.4317 37.5863 28.8867 37.0829L32.2146 32.9822C35.2421 33.8091 37.2838 35.2491 37.2838 36.7229C37.2838 38.8069 33.2004 41.0372 27.0725 41.0372Z" fill="white"/>
</svg>
