<svg width="10" height="14" viewBox="0 0 10 14" fill="none" xmlns="http://www.w3.org/2000/svg">
<path d="M4.99221 0C2.51285 0 0.492209 2.0207 0.492211 4.5C0.491694 4.553 0.499605 4.60574 0.515649 4.65625C0.557185 6.23608 1.24135 7.61686 2.0469 8.89844C2.87791 10.2205 3.84103 11.4613 4.45901 12.7266C4.49962 12.8101 4.5627 12.8807 4.64116 12.9303C4.71963 12.98 4.81038 13.0069 4.90326 13.0079C4.99613 13.0089 5.08745 12.9841 5.16698 12.9361C5.24651 12.8881 5.31111 12.8189 5.35354 12.7363C6.00239 11.472 7.01494 10.2304 7.8887 8.9082C8.76245 7.5861 9.50784 6.15821 9.50784 4.50781C9.50863 4.44442 9.49736 4.38145 9.47463 4.32227C9.37893 1.92658 7.4108 0 4.99221 0ZM4.99221 1C6.93113 1 8.49221 2.5611 8.49221 4.5C8.49158 4.53605 8.49486 4.57207 8.50198 4.60742C8.47208 5.91522 7.86646 7.12608 7.05276 8.35742C6.36496 9.39812 5.58918 10.4731 4.91799 11.5898C4.28087 10.4778 3.54685 9.40499 2.89456 8.36719C2.10069 7.10419 1.50784 5.86161 1.50784 4.50781C1.50818 4.47639 1.50557 4.445 1.50002 4.41406C1.54643 2.51616 3.08273 1 4.99221 1ZM4.99221 3.00391C4.16971 3.00391 3.49221 3.68141 3.49221 4.50391C3.49221 5.32641 4.16971 6.00391 4.99221 6.00391C5.81472 6.00391 6.49221 5.32641 6.49221 4.50391C6.49221 3.68141 5.81472 3.00391 4.99221 3.00391ZM4.99221 4.00391C5.27428 4.00391 5.49221 4.22191 5.49221 4.50391C5.49221 4.78601 5.27428 5.00391 4.99221 5.00391C4.71015 5.00391 4.49221 4.78601 4.49221 4.50391C4.49221 4.22191 4.71015 4.00391 4.99221 4.00391Z" fill="#FF0303"/>
</svg>
