<svg width="35" height="35" viewBox="0 0 35 35" fill="none" xmlns="http://www.w3.org/2000/svg">
<path fill-rule="evenodd" clip-rule="evenodd" d="M13.8674 0C6.21677 0 0 6.07518 0 13.5516C0 21.028 6.21677 27.1032 13.8674 27.1032C16.8945 27.1032 19.6922 26.1503 21.9738 24.5374L32.7058 35L35 32.758L24.3955 22.3701C26.4794 19.9973 27.7349 16.9177 27.7349 13.5516C27.7349 6.07518 21.5181 0 13.8674 0ZM13.8674 1.5943C20.6355 1.5943 26.1034 6.93769 26.1034 13.5516C26.1034 20.1655 20.6355 25.5089 13.8674 25.5089C7.09939 25.5089 1.63146 20.1655 1.63146 13.5516C1.63146 6.93769 7.09939 1.5943 13.8674 1.5943Z" fill="white"/>
</svg>
